%
M48
METRIC,TZ,000.000
ICI,OFF
T1C1
T2C3.2
%
T1
X43020Y50880
T1
X45560Y50880
T1
X48100Y50880
T1
X60800Y50880
T1
X63340Y50880
T1
X65880Y50880
T1
X68420Y50880
T1
X44036Y99140
T1
X41496Y99140
T1
X38956Y99140
T1
X68420Y99140
T1
X70960Y50880
T1
X73500Y50880
T1
X33876Y99140
T1
X73500Y99140
T1
X70960Y99140
T1
X46576Y99140
T1
X65880Y99140
T1
X63340Y99140
T1
X60800Y99140
T1
X58260Y99140
T1
X55720Y99140
T1
X51656Y99140
T1
X49116Y99140
T1
X36416Y99140
T1
X53180Y50880
T1
X50640Y50880
T1
X55720Y50880
T2
X25240Y99140
T2
X76040Y83900
T2
X23970Y50880
T1
X2460Y35640
T1
X5000Y45720
T1
X7500Y35720
T1
X7460Y35640
T1
X10000Y45720
T1
X12500Y35720
T1
X12460Y35640
T1
X15000Y45720
T1
X17500Y35720
M30
